{
    "asset" : {
        "generator" : "Khronos glTF Blender I/O v3.4.50",
        "version" : "2.0"
    },
    "scene" : 0,
    "scenes" : [
        {
            "name" : "Scene",
            "nodes" : [
                0,
                1,
                2,
                3,
                4,
                5,
                6,
                7
            ]
        }
    ],
    "nodes" : [
        {
            "mesh" : 0,
            "name" : "donut.m",
            "rotation" : [
                1,
                0,
                0,
                0
            ],
            "scale" : [
                -0.15621381998062134,
                -0.1414603739976883,
                -0.1558627486228943
            ],
            "translation" : [
                0.01840043254196644,
                -0.18000000715255737,
                0.0061334786005318165
            ]
        },
        {
            "mesh" : 1,
            "name" : "icing.m",
            "scale" : [
                0.1599999964237213,
                0.1294800043106079,
                0.1599999964237213
            ],
            "translation" : [
                0.05787045508623123,
                -0.1725466102361679,
                0.0067323315888643265
            ]
        },
        {
            "mesh" : 2,
            "name" : "donut.c",
            "rotation" : [
                1,
                0,
                0,
                0
            ],
            "scale" : [
                -0.15621381998062134,
                -0.1414603739976883,
                -0.1558627486228943
            ],
            "translation" : [
                -0.02821398712694645,
                -0.002129191532731056,
                0.00858684629201889
            ]
        },
        {
            "mesh" : 3,
            "name" : "icing.c",
            "scale" : [
                0.1599999964237213,
                0.1294800043106079,
                0.1599999964237213
            ],
            "translation" : [
                0.010983448475599289,
                0.010231003165245056,
                0.011639083735644817
            ]
        },
        {
            "mesh" : 4,
            "name" : "donut.v",
            "rotation" : [
                1,
                0,
                0,
                0
            ],
            "scale" : [
                -0.15621381998062134,
                -0.1414603739976883,
                -0.1558627486228943
            ],
            "translation" : [
                0.01886596903204918,
                0.1820654720067978,
                0.005919337272644043
            ]
        },
        {
            "mesh" : 5,
            "name" : "icing.v",
            "scale" : [
                0.1599999964237213,
                0.1294800043106079,
                0.1599999964237213
            ],
            "translation" : [
                0.056984756141901016,
                0.19609610736370087,
                0.00606139749288559
            ]
        },
        {
            "mesh" : 6,
            "name" : "plate",
            "scale" : [
                0.3499999940395355,
                0.02500000037252903,
                0.3499999940395355
            ],
            "translation" : [
                -0.013709735125303268,
                -0.2959688603878021,
                0.06075845658779144
            ]
        },
        {
            "mesh" : 7,
            "name" : "Cylinder",
            "scale" : [
                0.03500000014901161,
                0.3499999940395355,
                0.03500000014901161
            ],
            "translation" : [
                0.015947042033076286,
                0.09229208528995514,
                0.012266957201063633
            ]
        }
    ],
    "materials" : [
        {
            "doubleSided" : true,
            "name" : "Material",
            "pbrMetallicRoughness" : {
                "baseColorFactor" : [
                    0.8000000715255737,
                    0.44315582513809204,
                    0.26173967123031616,
                    1
                ],
                "metallicFactor" : 0,
                "roughnessFactor" : 0.5
            }
        },
        {
            "doubleSided" : true,
            "name" : "Material.001",
            "pbrMetallicRoughness" : {
                "baseColorFactor" : [
                    0.7425249218940735,
                    0.27915436029434204,
                    0.5808040499687195,
                    1
                ],
                "metallicFactor" : 0,
                "roughnessFactor" : 0.5
            }
        },
        {
            "doubleSided" : true,
            "name" : "Material.002",
            "pbrMetallicRoughness" : {
                "baseColorFactor" : [
                    0.47240960597991943,
                    0.08731268346309662,
                    0.0391557402908802,
                    1
                ],
                "metallicFactor" : 0,
                "roughnessFactor" : 0.5
            }
        },
        {
            "doubleSided" : true,
            "name" : "Material.003",
            "pbrMetallicRoughness" : {
                "baseColorFactor" : [
                    1,
                    0.9619611501693726,
                    0.9735570549964905,
                    1
                ],
                "metallicFactor" : 0,
                "roughnessFactor" : 0.5
            }
        },
        {
            "doubleSided" : true,
            "name" : "Material.005",
            "pbrMetallicRoughness" : {
                "baseColorFactor" : [
                    0.8000000715255737,
                    0.5,
                    0,
                    1
                ],
                "metallicFactor" : 0,
                "roughnessFactor" : 0.5
            }
        },
        {
            "doubleSided" : true,
            "name" : "Material.004",
            "pbrMetallicRoughness" : {
                "baseColorFactor" : [
                    0.8000000715255737,
                    0.5,
                    0,
                    1
                ],
                "metallicFactor" : 0,
                "roughnessFactor" : 0.5
            }
        }
    ],
    "meshes" : [
        {
            "name" : "Torus",
            "primitives" : [
                {
                    "attributes" : {
                        "POSITION" : 0,
                        "TEXCOORD_0" : 1,
                        "NORMAL" : 2
                    },
                    "indices" : 3,
                    "material" : 0
                }
            ]
        },
        {
            "name" : "Torus.001",
            "primitives" : [
                {
                    "attributes" : {
                        "POSITION" : 4,
                        "TEXCOORD_0" : 5,
                        "NORMAL" : 6
                    },
                    "indices" : 7,
                    "material" : 1
                }
            ]
        },
        {
            "name" : "Torus.002",
            "primitives" : [
                {
                    "attributes" : {
                        "POSITION" : 8,
                        "TEXCOORD_0" : 9,
                        "NORMAL" : 10
                    },
                    "indices" : 3,
                    "material" : 0
                }
            ]
        },
        {
            "name" : "Torus.005",
            "primitives" : [
                {
                    "attributes" : {
                        "POSITION" : 11,
                        "TEXCOORD_0" : 12,
                        "NORMAL" : 13
                    },
                    "indices" : 7,
                    "material" : 2
                }
            ]
        },
        {
            "name" : "Torus.006",
            "primitives" : [
                {
                    "attributes" : {
                        "POSITION" : 14,
                        "TEXCOORD_0" : 15,
                        "NORMAL" : 16
                    },
                    "indices" : 3,
                    "material" : 0
                }
            ]
        },
        {
            "name" : "Torus.008",
            "primitives" : [
                {
                    "attributes" : {
                        "POSITION" : 17,
                        "TEXCOORD_0" : 18,
                        "NORMAL" : 19
                    },
                    "indices" : 7,
                    "material" : 3
                }
            ]
        },
        {
            "name" : "Cylinder.001",
            "primitives" : [
                {
                    "attributes" : {
                        "POSITION" : 20,
                        "TEXCOORD_0" : 21,
                        "NORMAL" : 22
                    },
                    "indices" : 23,
                    "material" : 4
                }
            ]
        },
        {
            "name" : "Cylinder",
            "primitives" : [
                {
                    "attributes" : {
                        "POSITION" : 24,
                        "TEXCOORD_0" : 25,
                        "NORMAL" : 26
                    },
                    "indices" : 23,
                    "material" : 5
                }
            ]
        }
    ],
    "accessors" : [
        {
            "bufferView" : 0,
            "componentType" : 5126,
            "count" : 697,
            "max" : [
                1.4708203077316284,
                0.8231101036071777,
                1.645335078239441
            ],
            "min" : [
                -1.7299209833145142,
                -0.3786397874355316,
                -1.5626156330108643
            ],
            "type" : "VEC3"
        },
        {
            "bufferView" : 1,
            "componentType" : 5126,
            "count" : 697,
            "type" : "VEC2"
        },
        {
            "bufferView" : 2,
            "componentType" : 5126,
            "count" : 697,
            "type" : "VEC3"
        },
        {
            "bufferView" : 3,
            "componentType" : 5123,
            "count" : 3840,
            "type" : "SCALAR"
        },
        {
            "bufferView" : 4,
            "componentType" : 5126,
            "count" : 369,
            "max" : [
                1.4511548280715942,
                0.8231101036071777,
                1.611793041229248
            ],
            "min" : [
                -1.7102469205856323,
                -0.23210956156253815,
                -1.550101399421692
            ],
            "type" : "VEC3"
        },
        {
            "bufferView" : 5,
            "componentType" : 5126,
            "count" : 369,
            "type" : "VEC2"
        },
        {
            "bufferView" : 6,
            "componentType" : 5126,
            "count" : 369,
            "type" : "VEC3"
        },
        {
            "bufferView" : 7,
            "componentType" : 5123,
            "count" : 1920,
            "type" : "SCALAR"
        },
        {
            "bufferView" : 8,
            "componentType" : 5126,
            "count" : 697,
            "max" : [
                1.4708203077316284,
                0.8231101036071777,
                1.645335078239441
            ],
            "min" : [
                -1.7299209833145142,
                -0.3786397874355316,
                -1.5626156330108643
            ],
            "type" : "VEC3"
        },
        {
            "bufferView" : 9,
            "componentType" : 5126,
            "count" : 697,
            "type" : "VEC2"
        },
        {
            "bufferView" : 10,
            "componentType" : 5126,
            "count" : 697,
            "type" : "VEC3"
        },
        {
            "bufferView" : 11,
            "componentType" : 5126,
            "count" : 369,
            "max" : [
                1.4511548280715942,
                0.8231101036071777,
                1.611793041229248
            ],
            "min" : [
                -1.7102469205856323,
                -0.23210956156253815,
                -1.550101399421692
            ],
            "type" : "VEC3"
        },
        {
            "bufferView" : 12,
            "componentType" : 5126,
            "count" : 369,
            "type" : "VEC2"
        },
        {
            "bufferView" : 13,
            "componentType" : 5126,
            "count" : 369,
            "type" : "VEC3"
        },
        {
            "bufferView" : 14,
            "componentType" : 5126,
            "count" : 697,
            "max" : [
                1.4708203077316284,
                0.8231101036071777,
                1.645335078239441
            ],
            "min" : [
                -1.7299209833145142,
                -0.3786397874355316,
                -1.5626156330108643
            ],
            "type" : "VEC3"
        },
        {
            "bufferView" : 15,
            "componentType" : 5126,
            "count" : 697,
            "type" : "VEC2"
        },
        {
            "bufferView" : 16,
            "componentType" : 5126,
            "count" : 697,
            "type" : "VEC3"
        },
        {
            "bufferView" : 17,
            "componentType" : 5126,
            "count" : 369,
            "max" : [
                1.4511548280715942,
                0.8231101036071777,
                1.611793041229248
            ],
            "min" : [
                -1.7102469205856323,
                -0.23210956156253815,
                -1.550101399421692
            ],
            "type" : "VEC3"
        },
        {
            "bufferView" : 18,
            "componentType" : 5126,
            "count" : 369,
            "type" : "VEC2"
        },
        {
            "bufferView" : 19,
            "componentType" : 5126,
            "count" : 369,
            "type" : "VEC3"
        },
        {
            "bufferView" : 20,
            "componentType" : 5126,
            "count" : 130,
            "max" : [
                1.1038988828659058,
                1.3398011922836304,
                0.8718690872192383
            ],
            "min" : [
                -0.8961010575294495,
                -0.6601988077163696,
                -1.1281309127807617
            ],
            "type" : "VEC3"
        },
        {
            "bufferView" : 21,
            "componentType" : 5126,
            "count" : 130,
            "type" : "VEC2"
        },
        {
            "bufferView" : 22,
            "componentType" : 5126,
            "count" : 130,
            "type" : "VEC3"
        },
        {
            "bufferView" : 23,
            "componentType" : 5123,
            "count" : 372,
            "type" : "SCALAR"
        },
        {
            "bufferView" : 24,
            "componentType" : 5126,
            "count" : 130,
            "max" : [
                1,
                1,
                1
            ],
            "min" : [
                -1,
                -1,
                -1
            ],
            "type" : "VEC3"
        },
        {
            "bufferView" : 25,
            "componentType" : 5126,
            "count" : 130,
            "type" : "VEC2"
        },
        {
            "bufferView" : 26,
            "componentType" : 5126,
            "count" : 130,
            "type" : "VEC3"
        }
    ],
    "bufferViews" : [
        {
            "buffer" : 0,
            "byteLength" : 8364,
            "byteOffset" : 0,
            "target" : 34962
        },
        {
            "buffer" : 0,
            "byteLength" : 5576,
            "byteOffset" : 8364,
            "target" : 34962
        },
        {
            "buffer" : 0,
            "byteLength" : 8364,
            "byteOffset" : 13940,
            "target" : 34962
        },
        {
            "buffer" : 0,
            "byteLength" : 7680,
            "byteOffset" : 22304,
            "target" : 34963
        },
        {
            "buffer" : 0,
            "byteLength" : 4428,
            "byteOffset" : 29984,
            "target" : 34962
        },
        {
            "buffer" : 0,
            "byteLength" : 2952,
            "byteOffset" : 34412,
            "target" : 34962
        },
        {
            "buffer" : 0,
            "byteLength" : 4428,
            "byteOffset" : 37364,
            "target" : 34962
        },
        {
            "buffer" : 0,
            "byteLength" : 3840,
            "byteOffset" : 41792,
            "target" : 34963
        },
        {
            "buffer" : 0,
            "byteLength" : 8364,
            "byteOffset" : 45632,
            "target" : 34962
        },
        {
            "buffer" : 0,
            "byteLength" : 5576,
            "byteOffset" : 53996,
            "target" : 34962
        },
        {
            "buffer" : 0,
            "byteLength" : 8364,
            "byteOffset" : 59572,
            "target" : 34962
        },
        {
            "buffer" : 0,
            "byteLength" : 4428,
            "byteOffset" : 67936,
            "target" : 34962
        },
        {
            "buffer" : 0,
            "byteLength" : 2952,
            "byteOffset" : 72364,
            "target" : 34962
        },
        {
            "buffer" : 0,
            "byteLength" : 4428,
            "byteOffset" : 75316,
            "target" : 34962
        },
        {
            "buffer" : 0,
            "byteLength" : 8364,
            "byteOffset" : 79744,
            "target" : 34962
        },
        {
            "buffer" : 0,
            "byteLength" : 5576,
            "byteOffset" : 88108,
            "target" : 34962
        },
        {
            "buffer" : 0,
            "byteLength" : 8364,
            "byteOffset" : 93684,
            "target" : 34962
        },
        {
            "buffer" : 0,
            "byteLength" : 4428,
            "byteOffset" : 102048,
            "target" : 34962
        },
        {
            "buffer" : 0,
            "byteLength" : 2952,
            "byteOffset" : 106476,
            "target" : 34962
        },
        {
            "buffer" : 0,
            "byteLength" : 4428,
            "byteOffset" : 109428,
            "target" : 34962
        },
        {
            "buffer" : 0,
            "byteLength" : 1560,
            "byteOffset" : 113856,
            "target" : 34962
        },
        {
            "buffer" : 0,
            "byteLength" : 1040,
            "byteOffset" : 115416,
            "target" : 34962
        },
        {
            "buffer" : 0,
            "byteLength" : 1560,
            "byteOffset" : 116456,
            "target" : 34962
        },
        {
            "buffer" : 0,
            "byteLength" : 744,
            "byteOffset" : 118016,
            "target" : 34963
        },
        {
            "buffer" : 0,
            "byteLength" : 1560,
            "byteOffset" : 118760,
            "target" : 34962
        },
        {
            "buffer" : 0,
            "byteLength" : 1040,
            "byteOffset" : 120320,
            "target" : 34962
        },
        {
            "buffer" : 0,
            "byteLength" : 1560,
            "byteOffset" : 121360,
            "target" : 34962
        }
    ],
    "buffers" : [
        {
            "byteLength" : 122920,
            "uri" : "data:application/octet-stream;base64,"
        }
    ]
}
